<svg width="23" height="23" viewBox="0 0 23 23" fill="none" xmlns="http://www.w3.org/2000/svg">
<path fill-rule="evenodd" clip-rule="evenodd" d="M0 10.1287C0 4.54389 4.54389 0 10.1287 0C15.7138 0 20.2574 4.54389 20.2574 10.1287C20.2574 12.5854 19.3783 14.8406 17.9182 16.5962L22.7261 21.404C23.0913 21.769 23.0913 22.3611 22.7261 22.7261C22.5434 22.9087 22.3041 23 22.065 23C21.8257 23 21.5866 22.9087 21.404 22.7261L16.5962 17.9182C14.8406 19.3783 12.5854 20.2574 10.1287 20.2574C4.54389 20.2574 0 15.7138 0 10.1287ZM1.86992 10.1288C1.86992 14.6826 5.57485 18.3876 10.1287 18.3876C14.6826 18.3876 18.3875 14.6826 18.3875 10.1287C18.3875 5.57485 14.6826 1.86992 10.1287 1.86992C5.57485 1.86992 1.86992 5.5749 1.86992 10.1288Z" fill="white"/>
</svg>
