<svg width="52" height="52" viewBox="0 0 52 52" fill="none" xmlns="http://www.w3.org/2000/svg">
<path fill-rule="evenodd" clip-rule="evenodd" d="M44.4237 7.55688C39.5354 2.68633 33.0345 0.00285644 26.1087 0C11.8376 0 0.222917 11.5588 0.217177 25.7655C0.215263 30.3069 1.40734 34.7401 3.67319 38.6477L0 52L13.7255 48.4167C17.5075 50.4699 21.7652 51.5519 26.0982 51.5531H26.1091C40.3786 51.5531 51.9946 39.9934 52 25.7861C52.0029 18.9008 49.3122 12.4271 44.4237 7.55688ZM26.1087 47.2015H26.0998C22.2385 47.1999 18.4514 46.1671 15.1469 44.2162L14.3614 43.7519L6.21649 45.8783L8.39049 37.9752L7.87864 37.1649C5.72441 33.7549 4.58687 29.8137 4.58878 25.767C4.59324 13.9588 14.2473 4.35195 26.1174 4.35195C31.8654 4.35386 37.2686 6.58442 41.3315 10.6326C45.3944 14.6809 47.6306 20.0618 47.6287 25.7845C47.6236 37.5937 37.9702 47.2015 26.1087 47.2015V47.2015ZM37.9128 31.1613C37.2661 30.8388 34.0853 29.2817 33.4921 29.0666C32.8996 28.8517 32.4678 28.7447 32.0369 29.389C31.6055 30.0333 30.3659 31.4837 29.9883 31.9132C29.6107 32.3429 29.2337 32.3968 28.5867 32.0744C27.9396 31.7522 25.8552 31.0721 23.384 28.8787C21.461 27.1715 20.1627 25.0631 19.7851 24.4188C19.4082 23.7739 19.7819 23.459 20.0689 23.1048C20.7693 22.2393 21.4705 21.3319 21.6861 20.9025C21.902 20.4728 21.7939 20.0967 21.6319 19.7745C21.4705 19.4524 20.1767 16.2833 19.6378 14.9938C19.1122 13.7389 18.5793 13.9083 18.1819 13.8887C17.805 13.8699 17.3735 13.8661 16.942 13.8661C16.5109 13.8661 15.8099 14.0271 15.2167 14.672C14.6239 15.3166 12.9528 16.874 12.9528 20.043C12.9528 23.2121 15.2709 26.2736 15.5943 26.7033C15.9177 27.1331 20.1563 33.6362 26.6458 36.4248C28.1893 37.0887 29.3941 37.4845 30.334 37.7812C31.8839 38.2713 33.2938 38.2021 34.4087 38.0364C35.6518 37.8514 38.2359 36.4787 38.7755 34.9749C39.3144 33.4709 39.3144 32.182 39.1524 31.9132C38.9911 31.6447 38.5596 31.4837 37.9128 31.1613V31.1613Z" fill="#EA0708"/>
</svg>
